<?xml version="1.0" encoding="UTF-8"?>
<svg width="700pt" height="700pt" version="1.1" viewBox="0 0 700 700" xmlns="http://www.w3.org/2000/svg" xmlns:xlink="http://www.w3.org/1999/xlink">
 <defs>
  <symbol id="u" overflow="visible">
   <path d="m18.766-1.125c-0.96875 0.5-1.9805 0.875-3.0312 1.125-1.043 0.25781-2.1367 0.39062-3.2812 0.39062-3.3984 0-6.0898-0.94531-8.0781-2.8438-1.9922-1.9062-2.9844-4.4844-2.9844-7.7344 0-3.2578 0.99219-5.8359 2.9844-7.7344 1.9883-1.9062 4.6797-2.8594 8.0781-2.8594 1.1445 0 2.2383 0.13281 3.2812 0.39062 1.0508 0.25 2.0625 0.625 3.0312 1.125v4.2188c-0.98047-0.65625-1.9453-1.1406-2.8906-1.4531-0.94922-0.3125-1.9492-0.46875-3-0.46875-1.875 0-3.3516 0.60547-4.4219 1.8125-1.0742 1.1992-1.6094 2.8555-1.6094 4.9688 0 2.1055 0.53516 3.7617 1.6094 4.9688 1.0703 1.1992 2.5469 1.7969 4.4219 1.7969 1.0508 0 2.0508-0.14844 3-0.45312 0.94531-0.3125 1.9102-0.80078 2.8906-1.4688z"/>
  </symbol>
  <symbol id="d" overflow="visible">
   <path d="m13.734-11.141c-0.4375-0.19531-0.87109-0.34375-1.2969-0.4375-0.41797-0.10156-0.83984-0.15625-1.2656-0.15625-1.2617 0-2.2305 0.40625-2.9062 1.2188-0.67969 0.80469-1.0156 1.9531-1.0156 3.4531v7.0625h-4.8906v-15.312h4.8906v2.5156c0.625-1 1.3438-1.7266 2.1562-2.1875 0.82031-0.46875 1.8008-0.70312 2.9375-0.70312 0.16406 0 0.34375 0.011719 0.53125 0.03125 0.19531 0.011719 0.47656 0.039062 0.84375 0.078125z"/>
  </symbol>
  <symbol id="a" overflow="visible">
   <path d="m17.641-7.7031v1.4062h-11.453c0.125 1.1484 0.53906 2.0078 1.25 2.5781 0.70703 0.57422 1.7031 0.85938 2.9844 0.85938 1.0312 0 2.082-0.14844 3.1562-0.45312 1.082-0.3125 2.1914-0.77344 3.3281-1.3906v3.7656c-1.1562 0.4375-2.3125 0.76562-3.4688 0.98438-1.1562 0.22656-2.3125 0.34375-3.4688 0.34375-2.7734 0-4.9297-0.70312-6.4688-2.1094-1.5312-1.4062-2.2969-3.3789-2.2969-5.9219 0-2.5 0.75391-4.4609 2.2656-5.8906 1.5078-1.4375 3.582-2.1562 6.2188-2.1562 2.4062 0 4.332 0.73047 5.7812 2.1875 1.4453 1.4492 2.1719 3.3828 2.1719 5.7969zm-5.0312-1.625c0-0.92578-0.27344-1.6719-0.8125-2.2344-0.54297-0.57031-1.25-0.85938-2.125-0.85938-0.94922 0-1.7188 0.26562-2.3125 0.79688s-0.96484 1.2969-1.1094 2.2969z"/>
  </symbol>
  <symbol id="e" overflow="visible">
   <path d="m9.2188-6.8906c-1.0234 0-1.793 0.17188-2.3125 0.51562-0.51172 0.34375-0.76562 0.85547-0.76562 1.5312 0 0.625 0.20703 1.1172 0.625 1.4688 0.41406 0.34375 0.98828 0.51562 1.7188 0.51562 0.92578 0 1.7031-0.32812 2.3281-0.98438 0.63281-0.66406 0.95312-1.4922 0.95312-2.4844v-0.5625zm7.4688-1.8438v8.7344h-4.9219v-2.2656c-0.65625 0.92969-1.3984 1.6055-2.2188 2.0312-0.82422 0.41406-1.8242 0.625-3 0.625-1.5859 0-2.8711-0.45703-3.8594-1.375-0.99219-0.92578-1.4844-2.1289-1.4844-3.6094 0-1.7891 0.61328-3.1016 1.8438-3.9375 1.2383-0.84375 3.1797-1.2656 5.8281-1.2656h2.8906v-0.39062c0-0.76953-0.30859-1.332-0.92188-1.6875-0.61719-0.36328-1.5703-0.54688-2.8594-0.54688-1.0547 0-2.0312 0.10547-2.9375 0.3125-0.89844 0.21094-1.7305 0.52344-2.5 0.9375v-3.7344c1.0391-0.25 2.0859-0.44141 3.1406-0.57812 1.0625-0.13281 2.125-0.20312 3.1875-0.20312 2.7578 0 4.75 0.54688 5.9688 1.6406 1.2266 1.0859 1.8438 2.8555 1.8438 5.3125z"/>
  </symbol>
  <symbol id="c" overflow="visible">
   <path d="m7.7031-19.656v4.3438h5.0469v3.5h-5.0469v6.5c0 0.71094 0.14062 1.1875 0.42188 1.4375s0.83594 0.375 1.6719 0.375h2.5156v3.5h-4.1875c-1.9375 0-3.3125-0.39844-4.125-1.2031-0.80469-0.8125-1.2031-2.1797-1.2031-4.1094v-6.5h-2.4219v-3.5h2.4219v-4.3438z"/>
  </symbol>
  <symbol id="j" overflow="visible">
   <path d="m12.766-13.078v-8.2031h4.9219v21.281h-4.9219v-2.2188c-0.66797 0.90625-1.4062 1.5703-2.2188 1.9844s-1.7578 0.625-2.8281 0.625c-1.8867 0-3.4336-0.75-4.6406-2.25-1.2109-1.5-1.8125-3.4258-1.8125-5.7812 0-2.3633 0.60156-4.2969 1.8125-5.7969 1.207-1.5 2.7539-2.25 4.6406-2.25 1.0625 0 2 0.21484 2.8125 0.64062 0.82031 0.42969 1.5664 1.0859 2.2344 1.9688zm-3.2188 9.9219c1.0391 0 1.8359-0.37891 2.3906-1.1406 0.55078-0.76953 0.82812-1.8828 0.82812-3.3438 0-1.457-0.27734-2.5664-0.82812-3.3281-0.55469-0.76953-1.3516-1.1562-2.3906-1.1562-1.043 0-1.8398 0.38672-2.3906 1.1562-0.55469 0.76172-0.82812 1.8711-0.82812 3.3281 0 1.4609 0.27344 2.5742 0.82812 3.3438 0.55078 0.76172 1.3477 1.1406 2.3906 1.1406z"/>
  </symbol>
  <symbol id="i" overflow="visible">
   <path d="m10.5-3.1562c1.0508 0 1.8516-0.37891 2.4062-1.1406 0.55078-0.76953 0.82812-1.8828 0.82812-3.3438 0-1.457-0.27734-2.5664-0.82812-3.3281-0.55469-0.76953-1.3555-1.1562-2.4062-1.1562-1.0547 0-1.8594 0.38672-2.4219 1.1562-0.55469 0.77344-0.82812 1.8828-0.82812 3.3281 0 1.4492 0.27344 2.5586 0.82812 3.3281 0.5625 0.77344 1.3672 1.1562 2.4219 1.1562zm-3.25-9.9219c0.67578-0.88281 1.4219-1.5391 2.2344-1.9688 0.82031-0.42578 1.7656-0.64062 2.8281-0.64062 1.8945 0 3.4453 0.75 4.6562 2.25 1.207 1.5 1.8125 3.4336 1.8125 5.7969 0 2.3555-0.60547 4.2812-1.8125 5.7812-1.2109 1.5-2.7617 2.25-4.6562 2.25-1.0625 0-2.0078-0.21094-2.8281-0.625-0.8125-0.42578-1.5586-1.0859-2.2344-1.9844v2.2188h-4.8906v-21.281h4.8906z"/>
  </symbol>
  <symbol id="h" overflow="visible">
   <path d="m0.34375-15.312h4.8906l4.125 10.391 3.5-10.391h4.8906l-6.4375 16.766c-0.64844 1.6953-1.4023 2.8828-2.2656 3.5625-0.86719 0.6875-2 1.0312-3.4062 1.0312h-2.8438v-3.2188h1.5312c0.83203 0 1.4375-0.13672 1.8125-0.40625 0.38281-0.26172 0.67969-0.73047 0.89062-1.4062l0.14062-0.42188z"/>
  </symbol>
  <symbol id="g" overflow="visible">
   <path d="m2.5781-20.406h6.6875l4.6562 10.922 4.6719-10.922h6.6875v20.406h-4.9844v-14.938l-4.7031 11.016h-3.3281l-4.7031-11.016v14.938h-4.9844z"/>
  </symbol>
  <symbol id="f" overflow="visible">
   <path d="m14.719-14.828v3.9844c-0.65625-0.45703-1.3242-0.79688-2-1.0156-0.66797-0.21875-1.3594-0.32812-2.0781-0.32812-1.3672 0-2.4336 0.40234-3.2031 1.2031-0.76172 0.79297-1.1406 1.9062-1.1406 3.3438 0 1.4297 0.37891 2.543 1.1406 3.3438 0.76953 0.79297 1.8359 1.1875 3.2031 1.1875 0.75781 0 1.4844-0.10938 2.1719-0.32812 0.6875-0.22656 1.3203-0.56641 1.9062-1.0156v4c-0.76172 0.28125-1.5391 0.48828-2.3281 0.625-0.78125 0.14453-1.5742 0.21875-2.375 0.21875-2.7617 0-4.9219-0.70703-6.4844-2.125-1.5547-1.4141-2.3281-3.3828-2.3281-5.9062 0-2.5312 0.77344-4.5039 2.3281-5.9219 1.5625-1.4141 3.7227-2.125 6.4844-2.125 0.80078 0 1.5938 0.074219 2.375 0.21875 0.78125 0.13672 1.5547 0.35156 2.3281 0.64062z"/>
  </symbol>
  <symbol id="b" overflow="visible">
   <path d="m9.6406-12.188c-1.0859 0-1.9141 0.39062-2.4844 1.1719-0.57422 0.78125-0.85938 1.9062-0.85938 3.375s0.28516 2.5938 0.85938 3.375c0.57031 0.77344 1.3984 1.1562 2.4844 1.1562 1.0625 0 1.875-0.38281 2.4375-1.1562 0.57031-0.78125 0.85938-1.9062 0.85938-3.375s-0.28906-2.5938-0.85938-3.375c-0.5625-0.78125-1.375-1.1719-2.4375-1.1719zm0-3.5c2.6328 0 4.6914 0.71484 6.1719 2.1406 1.4766 1.418 2.2188 3.3867 2.2188 5.9062 0 2.5117-0.74219 4.4805-2.2188 5.9062-1.4805 1.418-3.5391 2.125-6.1719 2.125-2.6484 0-4.7148-0.70703-6.2031-2.125-1.4922-1.4258-2.2344-3.3945-2.2344-5.9062 0-2.5195 0.74219-4.4883 2.2344-5.9062 1.4883-1.4258 3.5547-2.1406 6.2031-2.1406z"/>
  </symbol>
  <symbol id="t" overflow="visible">
   <path d="m10.75-12.516c0.82031 0 1.4453-0.17969 1.875-0.54688 0.4375-0.36328 0.65625-0.89844 0.65625-1.6094 0-0.69531-0.21875-1.2266-0.65625-1.5938-0.42969-0.375-1.0547-0.5625-1.875-0.5625h-2.9219v4.3125zm0.17188 8.9375c1.0625 0 1.8594-0.22266 2.3906-0.67188 0.53125-0.44531 0.79688-1.125 0.79688-2.0312 0-0.88281-0.26562-1.5469-0.79688-1.9844-0.52344-0.4375-1.3203-0.65625-2.3906-0.65625h-3.0938v5.3438zm4.8906-7.3438c1.1328 0.32422 2.0078 0.92969 2.625 1.8125 0.625 0.88672 0.9375 1.9688 0.9375 3.25 0 1.9688-0.66797 3.4375-2 4.4062-1.3359 0.96875-3.3555 1.4531-6.0625 1.4531h-8.7344v-20.406h7.8906c2.832 0 4.8828 0.42969 6.1562 1.2812 1.2812 0.85547 1.9219 2.2266 1.9219 4.1094 0 1-0.23438 1.8516-0.70312 2.5469-0.46875 0.6875-1.1484 1.2031-2.0312 1.5469z"/>
  </symbol>
  <symbol id="s" overflow="visible">
   <path d="m2.3594-21.281h4.8906v21.281h-4.8906z"/>
  </symbol>
  <symbol id="r" overflow="visible">
   <path d="m12.422-21.281v3.2188h-2.7031c-0.6875 0-1.1719 0.125-1.4531 0.375-0.27344 0.25-0.40625 0.6875-0.40625 1.3125v1.0625h4.1875v3.5h-4.1875v11.812h-4.8906v-11.812h-2.4375v-3.5h2.4375v-1.0625c0-1.6641 0.46094-2.8984 1.3906-3.7031 0.92578-0.80078 2.3672-1.2031 4.3281-1.2031z"/>
  </symbol>
  <symbol id="q" overflow="visible">
   <path d="m16.547-12.766c0.61328-0.94531 1.3477-1.6719 2.2031-2.1719 0.85156-0.5 1.7891-0.75 2.8125-0.75 1.7578 0 3.0977 0.54688 4.0156 1.6406 0.92578 1.0859 1.3906 2.6562 1.3906 4.7188v9.3281h-4.9219v-7.9844-0.35938c0.007813-0.13281 0.015625-0.32031 0.015625-0.5625 0-1.082-0.16406-1.8633-0.48438-2.3438-0.3125-0.48828-0.82422-0.73438-1.5312-0.73438-0.92969 0-1.6484 0.38672-2.1562 1.1562-0.51172 0.76172-0.77344 1.8672-0.78125 3.3125v7.5156h-4.9219v-7.9844c0-1.6953-0.14844-2.7852-0.4375-3.2656-0.29297-0.48828-0.8125-0.73438-1.5625-0.73438-0.9375 0-1.6641 0.38672-2.1719 1.1562-0.51172 0.76172-0.76562 1.8594-0.76562 3.2969v7.5312h-4.9219v-15.312h4.9219v2.2344c0.60156-0.86328 1.2891-1.5156 2.0625-1.9531 0.78125-0.4375 1.6406-0.65625 2.5781-0.65625 1.0625 0 2 0.25781 2.8125 0.76562 0.8125 0.51172 1.4258 1.2305 1.8438 2.1562z"/>
  </symbol>
  <symbol id="p" overflow="visible">
   <path d="m17.75-9.3281v9.3281h-4.9219v-7.1094c0-1.3438-0.03125-2.2656-0.09375-2.7656s-0.16797-0.86719-0.3125-1.1094c-0.1875-0.3125-0.44922-0.55469-0.78125-0.73438-0.32422-0.17578-0.69531-0.26562-1.1094-0.26562-1.0234 0-1.8242 0.39844-2.4062 1.1875-0.58594 0.78125-0.875 1.8711-0.875 3.2656v7.5312h-4.8906v-21.281h4.8906v8.2031c0.73828-0.88281 1.5195-1.5391 2.3438-1.9688 0.83203-0.42578 1.75-0.64062 2.75-0.64062 1.7695 0 3.1133 0.54688 4.0312 1.6406 0.91406 1.0859 1.375 2.6562 1.375 4.7188z"/>
  </symbol>
  <symbol id="o" overflow="visible">
   <path d="m2.5781-20.406h5.875l7.4219 14v-14h4.9844v20.406h-5.875l-7.4219-14v14h-4.9844z"/>
  </symbol>
  <symbol id="n" overflow="visible">
   <path d="m2.1875-5.9688v-9.3438h4.9219v1.5312c0 0.83594-0.007813 1.875-0.015625 3.125-0.011719 1.25-0.015625 2.0859-0.015625 2.5 0 1.2422 0.03125 2.1328 0.09375 2.6719 0.070313 0.54297 0.17969 0.93359 0.32812 1.1719 0.20703 0.32422 0.47266 0.57422 0.79688 0.75 0.32031 0.16797 0.69141 0.25 1.1094 0.25 1.0195 0 1.8203-0.39062 2.4062-1.1719 0.58203-0.78125 0.875-1.8672 0.875-3.2656v-7.5625h4.8906v15.312h-4.8906v-2.2188c-0.74219 0.89844-1.5234 1.5586-2.3438 1.9844-0.82422 0.41406-1.7344 0.625-2.7344 0.625-1.7617 0-3.1055-0.53906-4.0312-1.625-0.92969-1.082-1.3906-2.6602-1.3906-4.7344z"/>
  </symbol>
  <symbol id="m" overflow="visible">
   <path d="m17.75-9.3281v9.3281h-4.9219v-7.1406c0-1.3203-0.03125-2.2344-0.09375-2.7344s-0.16797-0.86719-0.3125-1.1094c-0.1875-0.3125-0.44922-0.55469-0.78125-0.73438-0.32422-0.17578-0.69531-0.26562-1.1094-0.26562-1.0234 0-1.8242 0.39844-2.4062 1.1875-0.58594 0.78125-0.875 1.8711-0.875 3.2656v7.5312h-4.8906v-15.312h4.8906v2.2344c0.73828-0.88281 1.5195-1.5391 2.3438-1.9688 0.83203-0.42578 1.75-0.64062 2.75-0.64062 1.7695 0 3.1133 0.54688 4.0312 1.6406 0.91406 1.0859 1.375 2.6562 1.375 4.7188z"/>
  </symbol>
  <symbol id="l" overflow="visible">
   <path d="m2.5781-20.406h8.7344c2.5938 0 4.582 0.57812 5.9688 1.7344 1.3945 1.1484 2.0938 2.7891 2.0938 4.9219 0 2.1367-0.69922 3.7812-2.0938 4.9375-1.3867 1.1562-3.375 1.7344-5.9688 1.7344h-3.4844v7.0781h-5.25zm5.25 3.8125v5.7031h2.9219c1.0195 0 1.8047-0.25 2.3594-0.75 0.5625-0.5 0.84375-1.2031 0.84375-2.1094 0-0.91406-0.28125-1.6172-0.84375-2.1094-0.55469-0.48828-1.3398-0.73438-2.3594-0.73438z"/>
  </symbol>
  <symbol id="k" overflow="visible">
   <path d="m2.3594-15.312h4.8906v15.031c0 2.0508-0.49609 3.6172-1.4844 4.7031-0.98047 1.082-2.4062 1.625-4.2812 1.625h-2.4219v-3.2188h0.85938c0.92578 0 1.5625-0.21094 1.9062-0.625 0.35156-0.41797 0.53125-1.2461 0.53125-2.4844zm0-5.9688h4.8906v4h-4.8906z"/>
  </symbol>
 </defs>
 <g>
  <path d="m168.14 453.94-12.176 12.176c-2.1914 2.1914-2.1914 5.7305 0 7.918 1.0938 1.0938 2.5273 1.6406 3.9609 1.6406 1.4336 0 2.8672-0.54688 3.9609-1.6406l12.176-12.176c2.1914-2.1914 2.1914-5.7305 0-7.918-2.1914-2.1914-5.7305-2.1914-7.918 0z"/>
  <path d="m618.8 274.4h-17.215c-3.0977 0-5.6016 2.5039-5.6016 5.6016s2.5039 5.6016 5.6016 5.6016h17.215c3.0977 0 5.6016-2.5039 5.6016-5.6016s-2.5039-5.6016-5.6016-5.6016z"/>
  <path d="m98.414 274.4h-17.215c-3.0977 0-5.6016 2.5039-5.6016 5.6016s2.5039 5.6016 5.6016 5.6016h17.215c3.0977 0 5.6016-2.5039 5.6016-5.6016s-2.5039-5.6016-5.6016-5.6016z"/>
  <path d="m350 34.016c3.0977 0 5.6016-2.5039 5.6016-5.6016v-17.215c0-3.0977-2.5039-5.5977-5.6016-5.5977s-5.6016 2.5-5.6016 5.5977v17.215c0 3.0977 2.5039 5.6016 5.6016 5.6016z"/>
  <path d="m350 525.98c-3.0977 0-5.6016 2.5039-5.6016 5.6016v17.215c0 3.0977 2.5039 5.6016 5.6016 5.6016s5.6016-2.5039 5.6016-5.6016v-17.215c0-3.0977-2.5039-5.6016-5.6016-5.6016z"/>
  <path d="m531.86 453.94c-2.1914-2.1914-5.7305-2.1914-7.918 0-2.1914 2.1914-2.1914 5.7305 0 7.918l12.176 12.176c1.0938 1.0938 2.5273 1.6406 3.9609 1.6406s2.8672-0.54688 3.9609-1.6406c2.1914-2.1914 2.1914-5.7305 0-7.918z"/>
  <path d="m335.39 430.85c2.7773-1.7031 5.7852-3 9.0156-3.6523v-46.902c-2.3906-1.7148-3.1016-4.9727-1.5195-7.4922 0.41016-0.64453 0.93359-1.1602 1.5195-1.5742v-66.191c-3.6836-0.74609-7.1133-2.2109-10.125-4.25-7.4883-5.0625-12.414-13.625-12.414-23.32 0-0.074219 0.023437-0.14453 0.023437-0.21875 0.011719-1.5977 0.19531-3.1875 0.48047-4.7656 0.10547-0.59766 0.25781-1.1758 0.40234-1.7578 0.12891-0.52734 0.20312-1.0703 0.36328-1.5898l-61.758-38.777c-0.55469 0.18359-1.125 0.33984-1.7461 0.33984-2.832 0-5.0742-2.1328-5.4492-4.8594l-36.199-22.727c-0.10547 0.11328-0.23438 0.19531-0.33984 0.30859-0.23438 0.24219-0.5 0.44141-0.73828 0.67188-0.98438 0.94141-2.0273 1.8047-3.1289 2.582-0.35938 0.25391-0.72656 0.48828-1.0977 0.72266-1.1016 0.70703-2.2461 1.3203-3.4375 1.8633-0.37109 0.16797-0.72266 0.35156-1.1016 0.50391-1.6016 0.64844-3.2422 1.1992-4.9492 1.5391v122.15c0.023438 0.003906 0.039063 0.015625 0.0625 0.015625 0.066406 0.011719 0.12891 0.042969 0.19531 0.054688 1.6523 0.35156 3.2383 0.85547 4.7695 1.4844 0.54297 0.22266 1.0352 0.51953 1.5625 0.77344 1.0195 0.49219 2.0156 1.0039 2.9609 1.6055 0.58203 0.375 1.1133 0.79688 1.668 1.2109 0.80469 0.60547 1.5898 1.2305 2.3242 1.9219 0.53906 0.50391 1.0352 1.0234 1.5352 1.5664 0.64844 0.71094 1.2617 1.4492 1.8359 2.2227 0.45312 0.60547 0.88672 1.2109 1.2891 1.8555 0.50781 0.8125 0.94531 1.6641 1.3711 2.5273 0.33594 0.68359 0.68359 1.3477 0.96484 2.0625 0.37109 0.93359 0.63281 1.9102 0.90234 2.8945 0.19531 0.70703 0.4375 1.3906 0.57813 2.1172 0.24609 1.293 0.33984 2.6328 0.40234 3.9805 0.023438 0.42969 0.12891 0.83984 0.12891 1.2773 0 0.23047-0.0625 0.44141-0.066407 0.67187-0.035156 1.418-0.17969 2.8281-0.42578 4.2227-0.11719 0.67578-0.29297 1.3203-0.45312 1.9805-0.125 0.48047-0.18359 0.98047-0.33594 1.457l105.16 66.027c0.10156-0.10547 0.23047-0.17969 0.33594-0.28516 0.54688-0.55469 1.1758-1.0117 1.7695-1.5234 0.82422-0.71094 1.6133-1.457 2.5039-2.0664 0.37109-0.25391 0.78906-0.42187 1.1641-0.65625zm-81.352-178.5c0-3.0977 2.5039-5.6016 5.6016-5.6016s5.6016 2.5039 5.6016 5.6016v5.4531c0 3.0977-2.5039 5.6016-5.6016 5.6016s-5.6016-2.5039-5.6016-5.6016zm0 32.691c0-3.0977 2.5039-5.6016 5.6016-5.6016s5.6016 2.5039 5.6016 5.6016v5.4531c0 3.0977-2.5039 5.6016-5.6016 5.6016s-5.6016-2.5039-5.6016-5.6016zm12.711 39.973c-1.0586 1.6914-2.8828 2.6211-4.75 2.6211-1.0195 0-2.043-0.28125-2.9727-0.85547l-2.3672-1.4883c-1.6289-1.0273-2.6211-2.8203-2.6211-4.7461v-2.8008c0-3.0977 2.5039-5.6016 5.6016-5.6016 2.9961 0 5.4414 2.3516 5.5938 5.3086 2.418 1.7031 3.1094 5.0234 1.5195 7.5586zm30.219 18.961c-1.0586 1.6953-2.8828 2.625-4.75 2.625-1.0195 0-2.043-0.27344-2.9688-0.85547l-5.0352-3.1602c-2.6211-1.6406-3.4102-5.0977-1.7656-7.7188 1.6406-2.6133 5.1055-3.4141 7.7188-1.7656l5.0352 3.1602c2.6211 1.6367 3.4102 5.0898 1.7656 7.7109zm30.223 18.973c-1.0586 1.6953-2.8828 2.625-4.75 2.625-1.0195 0-2.043-0.27344-2.9688-0.85547l-5.0312-3.1562c-2.6211-1.6406-3.4102-5.0977-1.7656-7.7188s5.1016-3.4141 7.7188-1.7656l5.0352 3.1602c2.6133 1.6367 3.4102 5.0898 1.7656 7.7109z"/>
  <path d="m483.35 187.79c0.16406 0.65625 0.35938 1.3008 0.59766 1.9219 0.13281 0.35156 0.26953 0.69922 0.42578 1.043 0.32031 0.6875 0.67578 1.3555 1.082 1.9883 0.11328 0.18359 0.21094 0.375 0.33203 0.55469 0.26953 0.39062 0.60547 0.72656 0.90234 1.0938 0.5 0.60547 1.0195 1.1914 1.5859 1.7188 0.38672 0.35938 0.80078 0.68359 1.2227 1.0078 0.54297 0.41406 1.1094 0.79687 1.6914 1.1367 0.47656 0.28125 0.95703 0.55859 1.4688 0.79688 0.62891 0.29297 1.2812 0.50781 1.9375 0.72266 0.5 0.16406 0.98047 0.35156 1.4961 0.46484 0.97266 0.21094 1.9805 0.3125 3.0078 0.35156 0.21875 0.011718 0.42578 0.066406 0.64453 0.066406 9.3359 0 16.93-7.5938 16.93-16.93 0-9.3359-7.5938-16.93-16.93-16.93-5.7734 0-10.871 2.9102-13.926 7.3359-0.12891 0.18359-0.23047 0.37891-0.34766 0.57031-0.42969 0.67578-0.82422 1.3828-1.1523 2.1211-0.11328 0.24609-0.20703 0.49219-0.30078 0.74609-0.28516 0.72266-0.50781 1.4688-0.69531 2.2305-0.0625 0.26953-0.14062 0.53906-0.19141 0.8125-0.19141 1.0039-0.30859 2.0273-0.3125 3.0859 0 0.011719-0.003906 0.027343-0.003906 0.039062 0 1.0469 0.12891 2.0664 0.30859 3.0625 0.0625 0.32422 0.15625 0.65625 0.24219 0.99219z"/>
  <path d="m225.21 178.45c0.23437 1.2305 0.30859 2.4883 0.37891 3.7461 0.027344 0.51953 0.15625 1.0078 0.15625 1.5352 0 0.48047-0.11719 0.93359-0.14453 1.418-0.066406 1.293-0.14453 2.5859-0.39062 3.8516-0.15625 0.8125-0.42578 1.5742-0.64844 2.3633-0.21094 0.75-0.35156 1.5273-0.62891 2.2617l35.508 22.301c2.5703-1.332 5.7383-0.55859 7.3008 1.9219 0.61719 0.98047 0.78906 2.0703 0.75781 3.1484l23.613 14.828 37.398 23.48c0.5-0.58984 1.0352-1.1328 1.5742-1.6758 0.011718-0.011719 0.027343-0.027344 0.039062-0.039062 1.2305-1.2383 2.582-2.3359 4.0078-3.3086 0.09375-0.066406 0.18359-0.12891 0.28125-0.19141 1.3984-0.92969 2.8711-1.7344 4.4258-2.4023 0.17969-0.078125 0.36328-0.14453 0.54688-0.21875 1.5352-0.62109 3.1211-1.1367 4.7617-1.4766 0.19531-0.042969 0.39844-0.0625 0.59766-0.10156 1.668-0.3125 3.375-0.50781 5.1172-0.51562 0.042969 0 0.085938-0.011719 0.12891-0.011719 0.035156 0 0.066406 0.011719 0.10547 0.011719 1.7539 0.003906 3.4727 0.20312 5.1523 0.51953 0.19531 0.039063 0.39062 0.054687 0.58984 0.09375 1.625 0.33984 3.1914 0.85156 4.7109 1.4688 0.21094 0.085937 0.42578 0.16406 0.63281 0.25781 1.4883 0.64844 2.918 1.4297 4.2656 2.3203 0.17188 0.11719 0.34766 0.23438 0.51953 0.35156 1.3281 0.92578 2.5859 1.9414 3.7422 3.0898 0.15234 0.15234 0.29297 0.3125 0.4375 0.46484 0.4375 0.45312 0.88672 0.89062 1.2891 1.3711l61.039-38.297c-0.035156-1.0742 0.14063-2.168 0.75781-3.1484 1.5742-2.4961 4.7656-3.2656 7.3242-1.9219l20.797-13.047 12.582-7.8945c-0.023438-0.042969-0.027344-0.09375-0.042969-0.14062-0.61719-1.4297-1.0586-2.9453-1.4336-4.4844-0.074219-0.30078-0.21094-0.58984-0.28125-0.89453-0.35156-1.7031-0.51563-3.4648-0.54297-5.2656 0-0.15234-0.042969-0.29688-0.042969-0.44922v-0.003906-0.003907c0-1.9492 0.20312-3.8477 0.58203-5.6836 0.19141-0.94531 0.56641-1.832 0.85156-2.7422 0.27344-0.86719 0.46875-1.7656 0.82422-2.5938 0.027344-0.074219 0.039063-0.15234 0.074219-0.22266l-103.57-65.078c-0.039062 0.039062-0.085937 0.066406-0.125 0.10547-5.125 5.3203-12.273 8.6641-20.227 8.6641-3.9297 0-7.668-0.82422-11.066-2.2852-0.48047-0.20703-0.90625-0.51562-1.3789-0.75-1.1797-0.58984-2.3672-1.1797-3.4492-1.9219-0.54297-0.375-1.0078-0.84375-1.5234-1.2617-0.94141-0.75-1.8867-1.4883-2.7266-2.3516-0.074219-0.078125-0.16797-0.12891-0.24219-0.20703l-105.69 66.367c0.29297 0.76562 0.4375 1.5859 0.65625 2.375 0.21094 0.75781 0.47656 1.4883 0.62891 2.2734zm177.83 20.43c1.6445-2.6211 5.1016-3.4141 7.7188-1.7656l5.0352 3.1602c2.6211 1.6406 3.4102 5.0977 1.7656 7.7188-1.0586 1.6953-2.8828 2.625-4.75 2.625-1.0195 0-2.043-0.27344-2.9688-0.85547l-5.0391-3.1641c-2.6211-1.6445-3.4102-5.1055-1.7617-7.7227zm-30.223-18.973c1.6406-2.6133 5.1055-3.4219 7.7188-1.7656l5.0352 3.1602c2.6211 1.6406 3.4102 5.0977 1.7656 7.7188-1.0586 1.6953-2.8828 2.625-4.75 2.625-1.0195 0-2.043-0.27344-2.9688-0.85547l-5.0391-3.1641c-2.6133-1.6445-3.4102-5.1016-1.7656-7.7227zm-28.164-17.578 2.3672-1.4883c1.8242-1.1484 4.1289-1.1406 5.9531-0.003907l2.375 1.4883c2.6211 1.6445 3.4102 5.1016 1.7695 7.7227-1.5234 2.4258-4.5938 3.2812-7.1172 2.1016-0.76172 0.35156-1.5664 0.52734-2.3672 0.52734-1.8633 0-3.6836-0.92969-4.75-2.6211-1.6367-2.6211-0.85156-6.0742 1.7695-7.7227zm-30.219 18.969 5.0352-3.1602c2.6133-1.6523 6.0742-0.85547 7.7188 1.7656 1.6445 2.6211 0.85156 6.0742-1.7656 7.7188l-5.0352 3.1602c-0.92578 0.58203-1.9531 0.85547-2.9688 0.85547-1.8633 0-3.6836-0.92969-4.75-2.625-1.6445-2.6133-0.85156-6.0703 1.7656-7.7109zm-30.219 18.973 5.0352-3.1602c2.6094-1.6445 6.0742-0.85156 7.7188 1.7656 1.6445 2.6211 0.85156 6.0742-1.7656 7.7188l-5.0352 3.1602c-0.92578 0.58203-1.9531 0.85547-2.9688 0.85547-1.8633 0-3.6836-0.92969-4.75-2.625-1.6445-2.6133-0.85547-6.0703 1.7656-7.7109z"/>
  <path d="m338.3 100.26c0.15234 0.14453 0.33203 0.26172 0.48828 0.40234 0.81641 0.72656 1.6914 1.3672 2.625 1.9219 0.30078 0.17969 0.61719 0.33984 0.92969 0.50391 0.90625 0.46484 1.8555 0.83984 2.832 1.1328 0.28125 0.085938 0.54688 0.19141 0.83594 0.25781 1.293 0.3125 2.625 0.50781 4 0.50781 1.3711 0 2.7227-0.19531 4.0312-0.52734 0.21094-0.050781 0.41016-0.13281 0.62109-0.19141 1.1016-0.32031 2.168-0.74609 3.1758-1.2773 0.20312-0.10547 0.39844-0.20703 0.59375-0.32031 1.1094-0.64453 2.1602-1.3906 3.1016-2.2695 0.023438-0.023438 0.050782-0.039063 0.074219-0.054688 1.0234-0.96875 1.9336-2.0703 2.6875-3.2891 0.003906-0.003907 0.011719-0.011719 0.015625-0.015626 1.6406-2.6055 2.625-5.6602 2.625-8.9648 0-9.3359-7.5938-16.93-16.934-16.93-9.3359 0-16.93 7.5938-16.93 16.93 0 3.3594 1.0117 6.4727 2.7031 9.1094 0.72656 1.125 1.5742 2.1562 2.5195 3.0703z"/>
  <path d="m197.61 200.65c0.11719 0 0.22266-0.035156 0.33594-0.035156 1.1992-0.027344 2.375-0.17969 3.5117-0.44922 0.42578-0.10156 0.82812-0.25781 1.2422-0.38672 0.82812-0.26172 1.6406-0.57812 2.418-0.96875 0.40234-0.20312 0.79688-0.41016 1.1797-0.64453 0.82422-0.5 1.6016-1.0742 2.3398-1.7148 0.23047-0.20312 0.48828-0.37109 0.70703-0.58203 0.91797-0.89062 1.7461-1.8984 2.4648-3 0.49219-0.75781 0.92969-1.5508 1.3008-2.3867 0.11719-0.26953 0.19531-0.55469 0.30078-0.82812 0.23438-0.62891 0.44141-1.2695 0.59766-1.9375 0.089843-0.37109 0.17188-0.74609 0.24219-1.1211 0.13281-0.77734 0.21094-1.5664 0.24219-2.375 0.003906-0.16797 0.035156-0.33203 0.035156-0.5 0-0.18359-0.035156-0.37109-0.039062-0.55469-0.027344-0.80078-0.10547-1.5859-0.23438-2.3516-0.0625-0.36328-0.14062-0.71875-0.23047-1.0742-0.17969-0.73438-0.39844-1.457-0.66797-2.1523-0.074219-0.19531-0.13281-0.39844-0.21094-0.59375-2.6055-6.0039-8.5781-10.219-15.527-10.219-9.3398 0-16.934 7.5938-16.934 16.93 0 9.3359 7.5898 16.941 16.93 16.941z"/>
  <path d="m366.2 272.78c-0.29297-0.99609-0.65625-1.9727-1.1328-2.8906-0.17188-0.33984-0.35156-0.67188-0.54297-1.0039-0.23438-0.41016-0.46875-0.81641-0.73828-1.1992-0.51562-0.72266-1.0625-1.4062-1.6875-2.0391-0.16406-0.16797-0.33984-0.30859-0.50781-0.46875-0.56641-0.53125-1.1641-1.0312-1.7969-1.4844-0.19531-0.14062-0.39062-0.28516-0.59766-0.41406-0.8125-0.52734-1.6641-1.0078-2.5586-1.3945-0.078124-0.035157-0.16406-0.054688-0.24609-0.085938-0.82422-0.33594-1.6875-0.59375-2.5664-0.79688-0.26953-0.0625-0.54297-0.11719-0.81641-0.16797-0.93359-0.16797-1.8828-0.28125-2.8633-0.29297-0.042969 0-0.089844-0.011719-0.13281-0.011719-0.066406 0-0.13281 0.011719-0.20312 0.011719-0.95703 0.011719-1.8867 0.11719-2.8008 0.28516-0.28125 0.050781-0.55859 0.11328-0.83984 0.17188-0.90234 0.21094-1.7852 0.46875-2.6328 0.81641-0.050781 0.023438-0.10156 0.035156-0.15234 0.050782-0.94141 0.40234-1.832 0.89453-2.6836 1.457-0.125 0.085937-0.24609 0.16797-0.36328 0.25391-0.80078 0.55859-1.5625 1.1758-2.2578 1.8633-0.023438 0.023438-0.042969 0.039063-0.066407 0.0625-0.72656 0.72656-1.3828 1.5352-1.9648 2.3867-0.085938 0.125-0.15234 0.25391-0.23438 0.375-0.37109 0.57031-0.67578 1.1797-0.97266 1.793-0.41406 0.86328-0.75 1.7539-1.0117 2.6602-0.089844 0.29688-0.20703 0.58203-0.28125 0.89062-0.29688 1.2656-0.47656 2.5547-0.47656 3.8477 0 5.8359 2.9688 10.988 7.4648 14.039 2.7031 1.8242 5.957 2.8945 9.457 2.8945 9.3398 0 16.934-7.5938 16.934-16.93 0-0.078126-0.023437-0.15234-0.023437-0.23047-0.015626-1.2148-0.17188-2.418-0.44922-3.5938-0.054688-0.29688-0.17188-0.57031-0.25781-0.86328z"/>
  <path d="m204.18 345.43c-2.0195-0.85938-4.2383-1.3281-6.5664-1.3281-9.3398 0-16.934 7.5938-16.934 16.93 0 9.3398 7.5938 16.934 16.934 16.934 6.6484 0 12.355-3.8867 15.121-9.4766 0.45312-0.92969 0.82422-1.8945 1.1016-2.8828 0.0625-0.23047 0.15625-0.44141 0.21094-0.67578 0.30078-1.2812 0.48047-2.5938 0.48047-3.9102 0-6.9883-4.2734-13.016-10.348-15.59z"/>
  <path d="m361.69 442.57c-0.15625-0.15234-0.34375-0.26953-0.50391-0.41406-0.80078-0.71094-1.6641-1.3398-2.582-1.8867-0.32422-0.19531-0.66016-0.37109-1.0039-0.54297-0.82812-0.42188-1.6953-0.75781-2.5859-1.043-0.38672-0.125-0.76172-0.26953-1.1602-0.35938-1.0586-0.25391-2.1445-0.37891-3.2461-0.42578-0.20703-0.003906-0.40234-0.0625-0.60938-0.0625-0.19531 0-0.37891 0.050781-0.57812 0.054687-1.1016 0.039063-2.1836 0.16797-3.2383 0.41406-0.47656 0.11328-0.92578 0.28125-1.3828 0.42969-0.77344 0.25391-1.5234 0.54297-2.25 0.90234-0.44922 0.21875-0.88672 0.45312-1.3086 0.71094-0.75781 0.46094-1.4688 0.99219-2.1445 1.5664-0.29297 0.24609-0.60547 0.46094-0.87891 0.72656-0.89453 0.875-1.7031 1.8555-2.4023 2.9297-1.7266 2.6562-2.75 5.8008-2.75 9.1953 0 9.3359 7.5938 16.93 16.93 16.93 9.3398 0 16.934-7.5938 16.934-16.93 0-3.3359-1.0039-6.4297-2.6758-9.0547-0.71094-1.1602-1.5859-2.2109-2.5586-3.1484z"/>
  <path d="m486.97 335.97c1.3008-0.85547 2.6719-1.5977 4.1094-2.2344 0.16406-0.074219 0.30859-0.16797 0.46875-0.23438 1.668-0.69922 3.4062-1.2812 5.2188-1.6523l0.003906-120.14c-0.56641-0.0625-1.1133-0.22266-1.6719-0.31641-0.60547-0.10156-1.207-0.21094-1.8047-0.34766-1.0938-0.26562-2.1523-0.61328-3.2031-1-0.57812-0.21094-1.1602-0.38281-1.7148-0.63281-1.3594-0.60156-2.6602-1.3125-3.9062-2.125-0.17969-0.11719-0.37109-0.20703-0.55078-0.32422-1.2383-0.83984-2.418-1.7812-3.5156-2.8125l-34.586 21.699c-0.37891 2.7227-2.6211 4.8477-5.4492 4.8477-0.61719 0-1.1875-0.15625-1.7422-0.33984l-61.77 38.754c0.17188 0.54297 0.25391 1.1133 0.38672 1.668 0.13281 0.54297 0.28125 1.0742 0.37891 1.6367 0.30859 1.668 0.51562 3.3555 0.51562 5.0586 0 13.598-9.6953 24.965-22.527 27.57v66.199c0.58203 0.41406 1.1016 0.92969 1.5117 1.5664 1.5742 2.5156 0.86328 5.7578-1.5117 7.4688v46.934c0.023437 0.003906 0.039063 0.003906 0.0625 0.003906 0.32031 0.066406 0.60938 0.21094 0.92969 0.29297 1.5391 0.375 3.0586 0.8125 4.4922 1.4297 0.11328 0.042969 0.20703 0.125 0.3125 0.17188 1.5977 0.71094 3.1211 1.5469 4.543 2.5312 0.34766 0.24219 0.63672 0.54688 0.97266 0.80078 1.1328 0.86328 2.2383 1.7461 3.2305 2.7656 0.0625 0.0625 0.14062 0.10547 0.20312 0.17188l105.62-66.242c-0.37109-0.99609-0.58203-2.0391-0.83594-3.0742-0.09375-0.39844-0.24219-0.76562-0.32031-1.1719-0.35938-1.793-0.57812-3.6172-0.57812-5.4766 0-1.8984 0.23047-3.7305 0.58984-5.5234 0.039063-0.20312 0.11328-0.38672 0.15625-0.58203 0.34766-1.5469 0.80469-3.0391 1.3945-4.4727 0.14062-0.34766 0.32031-0.66797 0.46875-1.0078 0.57812-1.2617 1.2227-2.4688 1.9727-3.625 0.23047-0.34766 0.46484-0.68359 0.71094-1.0195 0.77734-1.0938 1.625-2.1211 2.5469-3.0898 0.28516-0.29688 0.55859-0.58984 0.85547-0.875 0.99609-0.95703 2.0625-1.832 3.1914-2.6328 0.28125-0.20703 0.54688-0.42578 0.83984-0.61719zm-101.4 25.582-5.0352 3.1602c-0.92578 0.58203-1.9531 0.85547-2.9688 0.85547-1.8633 0-3.6836-0.92969-4.75-2.625-1.6445-2.6211-0.85156-6.0742 1.7656-7.7188l5.0352-3.1602c2.6094-1.6445 6.0742-0.85156 7.7188 1.7656 1.6445 2.6211 0.85156 6.082-1.7656 7.7227zm30.219-18.969-5.0352 3.1602c-0.92578 0.58203-1.9531 0.85547-2.9688 0.85547-1.8633 0-3.6836-0.92969-4.75-2.625-1.6445-2.6211-0.85156-6.0742 1.7656-7.7188l5.0352-3.1602c2.6133-1.6445 6.0742-0.85156 7.7188 1.7656 1.6445 2.625 0.85547 6.082-1.7656 7.7227zm30.18-22.043c0 1.9336-0.99219 3.7188-2.625 4.75l-2.375 1.4883c-0.92578 0.58203-1.9531 0.85156-2.9688 0.85156-1.8633 0-3.6836-0.92969-4.7539-2.625-1.5859-2.5352-0.89453-5.8594 1.5234-7.5586 0.15234-2.9531 2.6055-5.3047 5.5938-5.3047 3.0977 0 5.6016 2.5039 5.6016 5.6016v2.8008zm0-30.043c0 3.0977-2.5039 5.6016-5.6016 5.6016-3.0977 0-5.6016-2.5039-5.6016-5.6016v-5.4531c0-3.0977 2.5039-5.6016 5.6016-5.6016 3.0977 0 5.6016 2.5039 5.6016 5.6016zm0-32.699c0 3.0977-2.5039 5.6016-5.6016 5.6016-3.0977 0-5.6016-2.5039-5.6016-5.6016v-5.4531c0-3.0977 2.5039-5.6016 5.6016-5.6016 3.0977 0 5.6016 2.5039 5.6016 5.6016z"/>
  <path d="m502.39 342.52c-9.3359 0-16.93 7.5938-16.93 16.93 0 0.23047 0.054687 0.44141 0.066406 0.66797 0.042969 1.1328 0.19141 2.2344 0.45312 3.2969 0.11719 0.47656 0.28125 0.93359 0.42969 1.3945 0.36328 1.0469 0.78906 2.0703 1.3672 3.0391 2.9297 5.0742 8.3477 8.5352 14.609 8.5352 9.3398 0 16.934-7.5938 16.934-16.934 0-9.3281-7.5938-16.93-16.934-16.93z"/>
  <path d="m536.11 85.973-12.176 12.176c-2.1914 2.1914-2.1914 5.7305 0 7.918 1.0938 1.0938 2.5273 1.6406 3.9609 1.6406 1.4336 0 2.8672-0.54688 3.9609-1.6406l12.176-12.176c2.1914-2.1914 2.1914-5.7305 0-7.918-2.1914-2.1914-5.7305-2.1914-7.918 0z"/>
  <path d="m163.89 85.977c-2.1914-2.1914-5.7305-2.1914-7.918 0-2.1914 2.1914-2.1914 5.7305 0 7.918l12.176 12.168c1.0938 1.0938 2.5273 1.6406 3.9609 1.6406 1.4336 0 2.8672-0.54688 3.9609-1.6406 2.1914-2.1914 2.1914-5.7305 0-7.918z"/>
   </g>
</svg>
